<?xml version="1.0" encoding="utf-8"?>
<svg xmlns="http://www.w3.org/2000/svg" fill="none" height="51" width="51">
  <path d="M25.625 4.631c6.675 0 7.467.025 10.104.146 6.775.308 9.94 3.523 10.248 10.248.12 2.635.144 3.427.144 10.102 0 6.677-.025 7.467-.144 10.102-.31 6.719-3.467 9.94-10.248 10.248-2.637.12-3.425.146-10.104.146-6.675 0-7.467-.025-10.102-.146-6.792-.31-9.94-3.54-10.248-10.25-.12-2.635-.146-3.425-.146-10.102 0-6.675.027-7.465.146-10.102.31-6.723 3.467-9.94 10.248-10.248 2.637-.119 3.427-.144 10.102-.144Zm0-4.506c-6.79 0-7.64.03-10.306.15C6.239.692 1.194 5.729.777 14.817.654 17.485.625 18.335.625 25.125s.03 7.642.15 10.308c.417 9.08 5.454 14.125 14.542 14.542 2.668.12 3.518.15 10.308.15s7.642-.03 10.308-.15c9.071-.417 14.13-5.454 14.54-14.542.123-2.666.152-3.518.152-10.308s-.03-7.64-.15-10.306C50.067 5.748 45.023.694 35.935.277c-2.668-.123-3.52-.152-10.31-.152Zm0 12.162c-7.09 0-12.838 5.748-12.838 12.838 0 7.09 5.748 12.84 12.838 12.84 7.09 0 12.837-5.748 12.837-12.84 0-7.09-5.747-12.838-12.837-12.838Zm0 21.171a8.334 8.334 0 1 1 0-16.666 8.334 8.334 0 0 1 0 16.666ZM38.971 8.781a3.001 3.001 0 1 0-.002 6.003 3.001 3.001 0 0 0 .002-6.003Z" fill="#111"/>
</svg>