<?xml version="1.0" encoding="utf-8"?>
<svg xmlns="http://www.w3.org/2000/svg" fill="none" height="20" width="94">
  <path d="M92.988 13.363a.527.527 0 0 0 0 1.057.527.527 0 0 0 0-1.057Zm0 .973a.444.444 0 1 1 .003-.888.444.444 0 0 1-.003.888Zm.171-.535c0-.096-.068-.153-.168-.153h-.168v.481h.083v-.174h.09l.086.174h.09l-.096-.192a.141.141 0 0 0 .083-.136Zm-.171.08h-.081v-.16h.08c.056 0 .09.027.09.079 0 .052-.035.08-.09.08ZM29.65 8.015V6.74H27.7v7.601h1.95V9.782c0-.825.527-1.23 1.348-1.23h1.067V6.738h-.912c-.713 0-1.333.374-1.503 1.277Zm4.24-4.284c-.666 0-1.177.53-1.177 1.2a1.17 1.17 0 0 0 1.178 1.183 1.17 1.17 0 0 0 1.178-1.184c0-.67-.511-1.2-1.178-1.2ZM32.92 14.34h1.945V6.74H32.92v7.601Zm11.209-3.8c0 2.17-1.75 3.929-3.91 3.929a3.75 3.75 0 0 1-2.295-.772v2.875H35.98V6.739h1.944v.643a3.75 3.75 0 0 1 2.295-.772c2.16 0 3.91 1.76 3.91 3.93Zm-1.957 0a2.13 2.13 0 0 0-2.124-2.135 2.13 2.13 0 0 0-2.123 2.134 2.13 2.13 0 0 0 2.123 2.135 2.129 2.129 0 0 0 2.124-2.135Zm35.759-.667-1.135-.313c-.747-.196-1.037-.426-1.037-.822 0-.387.41-.657.994-.657.556 0 .993.366.993.836v.043h1.793v-.043c0-1.38-1.12-2.307-2.786-2.307-1.65 0-2.85.926-2.85 2.203 0 .993.655 1.74 1.797 2.051l1.087.299c.826.23 1.132.484 1.132.941 0 .482-.443.806-1.103.806-.688 0-1.151-.438-1.151-1.088v-.044H73.76v.044c0 1.559 1.25 2.649 3.038 2.649 1.724 0 2.975-1.064 2.975-2.53 0-.72-.32-1.66-1.844-2.068ZM51.027 6.739h1.945v7.601h-1.945v-.643a3.749 3.749 0 0 1-2.295.772c-2.16 0-3.91-1.76-3.91-3.93s1.75-3.929 3.91-3.929a3.75 3.75 0 0 1 2.295.772v-.643Zm0 3.8c0-1.179-.951-2.134-2.124-2.134a2.13 2.13 0 0 0-2.123 2.134 2.13 2.13 0 0 0 2.123 2.135 2.128 2.128 0 0 0 2.124-2.135Zm8.967-6.506h1.945v10.308h-1.945v-.643a3.75 3.75 0 0 1-2.295.772c-2.159 0-3.91-1.76-3.91-3.93s1.751-3.929 3.91-3.929a3.75 3.75 0 0 1 2.295.772v-3.35Zm0 6.506a2.13 2.13 0 0 0-2.124-2.134 2.13 2.13 0 0 0-2.123 2.134c0 1.179.95 2.135 2.123 2.135a2.129 2.129 0 0 0 2.124-2.135Zm10.974 3.801h1.945V6.74h-1.945v7.601Zm.973-10.608c-.667 0-1.178.53-1.178 1.2a1.17 1.17 0 0 0 1.178 1.183 1.17 1.17 0 0 0 1.178-1.184c0-.67-.511-1.2-1.178-1.2Zm16.24 6.807c0 2.17-1.75 3.93-3.91 3.93s-3.91-1.76-3.91-3.93 1.75-3.929 3.91-3.929 3.91 1.76 3.91 3.93Zm-1.787 0a2.13 2.13 0 0 0-2.123-2.134 2.13 2.13 0 0 0-2.124 2.134c0 1.179.95 2.135 2.124 2.135a2.129 2.129 0 0 0 2.123-2.135ZM28.655 4.033h-7.46v1.744h2.762v8.563h1.938V5.777h2.761V4.033Zm37.728 8.225-1.73-5.52H62.61l2.595 7.602h2.34l2.611-7.601h-2.043l-1.73 5.52ZM91.03 8.016V6.74h-1.95v7.601h1.95V9.782c0-.825.526-1.23 1.348-1.23h1.067V6.738h-.912c-.713 0-1.332.374-1.503 1.277Z" fill="#000"/>
  <path d="M9.946 19.996c5.493 0 9.946-4.475 9.946-9.996 0-5.52-4.453-9.996-9.946-9.996C4.453.004 0 4.479 0 10c0 5.52 4.453 9.996 9.946 9.996Z" fill="#34E0A1"/>
  <path d="m16.09 8.05 1.2-1.312h-2.662A8.234 8.234 0 0 0 9.946 5.29a8.214 8.214 0 0 0-4.673 1.448H2.605l1.2 1.312a3.688 3.688 0 0 0-1.197 2.725 3.678 3.678 0 0 0 3.669 3.687c.962 0 1.839-.373 2.493-.983l1.176 1.287 1.176-1.286c.655.61 1.53.982 2.493.982a3.68 3.68 0 0 0 3.67-3.687A3.679 3.679 0 0 0 16.09 8.05Zm-9.812 5.22a2.489 2.489 0 0 1-2.483-2.495A2.489 2.489 0 0 1 6.278 8.28a2.489 2.489 0 0 1 2.482 2.495 2.489 2.489 0 0 1-2.482 2.495Zm3.67-2.567c0-1.642-1.189-3.052-2.757-3.654a7.093 7.093 0 0 1 2.755-.554c.977 0 1.908.198 2.756.554-1.567.603-2.755 2.012-2.755 3.654Zm3.668 2.567a2.489 2.489 0 0 1-2.483-2.495 2.489 2.489 0 0 1 2.483-2.495 2.489 2.489 0 0 1 2.482 2.495 2.489 2.489 0 0 1-2.482 2.495Zm0-3.804c-.72 0-1.302.585-1.302 1.308 0 .723.583 1.308 1.302 1.308.719 0 1.301-.585 1.301-1.308 0-.721-.582-1.308-1.301-1.308Zm-6.037 1.31c0 .722-.582 1.307-1.301 1.307a1.304 1.304 0 0 1-1.302-1.308c0-.723.583-1.308 1.302-1.308a1.304 1.304 0 0 1 1.301 1.308Z" fill="#000"/>
</svg>