<?xml version="1.0" encoding="utf-8"?>
<svg xmlns="http://www.w3.org/2000/svg" height="33" width="140">
  <g fill="#007AFF" fill-rule="nonzero">
    <path d="M135.976 1.953a4.15 4.15 0 0 1 2.042.515c.606.34 1.11.836 1.458 1.437.343.597.523 1.27.524 1.956a3.794 3.794 0 0 1-.524 1.952 3.49 3.49 0 0 1-1.458 1.437 4.298 4.298 0 0 1-4.086 0 3.872 3.872 0 0 1-1.456-1.437 3.933 3.933 0 0 1-.526-1.952 3.794 3.794 0 0 1 .526-1.956 3.493 3.493 0 0 1 1.456-1.437 4.15 4.15 0 0 1 2.044-.515Zm0 6.952a2.928 2.928 0 0 0 1.574-.402c.457-.272.84-.65 1.12-1.103a2.934 2.934 0 0 0 0-2.987 3.308 3.308 0 0 0-1.12-1.103 2.866 2.866 0 0 0-1.518-.403 2.925 2.925 0 0 0-1.573.403c-.457.272-.84.65-1.12 1.103a2.934 2.934 0 0 0 0 2.987c.278.45.662.83 1.12 1.103a2.6 2.6 0 0 0 1.517.402Zm1.68-3.679c.005.26-.055.517-.176.748a1.01 1.01 0 0 1-.524.46l.815 1.206h-1.12l-.571-1.035h-.7V7.64h-.98V3.963h1.632c.419-.027.833.096 1.168.345a.929.929 0 0 1 .468.918m-2.277.635h.689a.612.612 0 0 0 .467-.174.59.59 0 0 0 .174-.46.638.638 0 0 0-.173-.458.668.668 0 0 0-.468-.174h-.7l.011 1.266ZM126.641 14.708c-.115-.747-.232-1.781-.991-2.587a3.687 3.687 0 0 0-2.624-1.034 3.735 3.735 0 0 0-2.744 1.207c-.756.806-.932 1.656-1.12 2.414h7.479Zm5.368 6.78a15.356 15.356 0 0 1-2.218 2.7c-1.573 1.494-3.967 2.586-6.882 2.586-5.427 0-9.277-3.447-9.277-9.424 0-4.413 2.159-10.055 9.394-10.055 1.12 0 4.256.116 6.592 2.645 2.391 2.526 2.52 6.09 2.564 8.158h-13.064c-.059 2.297 1.282 4.54 4.141 4.54 2.973 0 3.967-1.898 4.609-3.22l4.141 2.07ZM100.8 9.536a5.218 5.218 0 0 1 1.809-1.437 8.979 8.979 0 0 1 3.323-.631 6.979 6.979 0 0 1 3.268.747c1.926 1.034 2.391 2.642 2.391 5.458v12.469h-5.365V15.858c0-1.655-.058-2.242-.235-2.703-.409-.976-1.341-1.379-2.391-1.379-2.859 0-2.859 2.3-2.859 4.54v9.827h-5.423V7.94h5.423l.059 1.608v-.012Zm-8.868-6.269a2.81 2.81 0 0 1-.845 2.04c-.553.54-1.297.84-2.07.834a2.985 2.985 0 0 1-2.05-.854 2.897 2.897 0 0 1-.867-2.02 2.81 2.81 0 0 1 .846-2.04 2.928 2.928 0 0 1 2.071-.834c.77.002 1.51.305 2.06.845a2.86 2.86 0 0 1 .855 2.03v-.001Zm-5.6 4.598h5.32v18.271h-5.32V7.865Zm-3.614 18.271H77.28V0h5.426l.012 26.137v-.001Zm-13.36-11.434c-.117-.748-.232-1.782-1.05-2.587a3.66 3.66 0 0 0-1.207-.778 3.702 3.702 0 0 0-1.419-.257 3.74 3.74 0 0 0-1.5.318c-.47.207-.893.51-1.24.89-.76.806-.933 1.655-1.12 2.414h7.537-.001Zm5.424 6.779a15.461 15.461 0 0 1-2.214 2.7c-1.577 1.495-3.968 2.587-6.944 2.587-5.424 0-9.274-3.448-9.274-9.424 0-4.413 2.159-10.056 9.391-10.056 1.12 0 4.259.116 6.591 2.645 2.392 2.526 2.52 6.09 2.627 8.158H61.832c-.056 2.298 1.286 4.54 4.2 4.54 2.977 0 3.968-1.898 4.668-3.219l4.082 2.069Zm-21.114-.919c0-.058-.118-.058-.118 0a3.46 3.46 0 0 1-.409.574 3.582 3.582 0 0 1-2.741 1.271c-2.859 0-4.082-3.033-4.082-5.46 0-2.182.99-5.516 3.92-5.516a3.725 3.725 0 0 1 2.04.634 3.92 3.92 0 0 1 1.4 1.608.18.18 0 0 0 .116.058 9.014 9.014 0 0 1 2.335-4.08 8.826 8.826 0 0 0-6.127-2.3c-6.123 0-9.214 4.482-9.214 9.77 0 7.468 5.6 9.536 9.097 9.536a9.198 9.198 0 0 0 5.253-1.655c.284-.215.556-.445.814-.689a7.407 7.407 0 0 1-2.273-3.734l-.011-.017ZM38.618 3.268a2.811 2.811 0 0 1-.848 2.04c-.553.54-1.297.84-2.07.834a2.985 2.985 0 0 1-2.05-.854 2.897 2.897 0 0 1-.868-2.02 2.826 2.826 0 0 1 .851-2.036A2.931 2.931 0 0 1 35.7.4c.77.002 1.507.305 2.057.843.546.537.855 1.265.86 2.025h.001Zm-5.6 4.598h5.306v18.271h-5.306V7.866ZM25.432 9.76c1.168-1.034 2.52-1.836 5.32-2.068v4.768l-1.808.276c-2.565.458-3.383.86-3.383 3.158v10.287h-5.437V7.871h5.25v1.895l.058-.006ZM9.1 11.266c-.991 0-1.982.403-2.8 1.495-.759 1.034-1.12 2.584-1.12 4.308 0 2.297.585 3.734 1.285 4.482a3.244 3.244 0 0 0 2.391 1.034c2.624 0 3.792-2.816 3.792-5.687 0-2.413-.642-4.942-2.86-5.516a2.949 2.949 0 0 0-.7-.116H9.1ZM4.782 9.658c.161-.205.337-.397.527-.576.932-.86 2.565-1.608 4.609-1.608 4.48 0 7.99 3.39 7.99 9.48 0 3.736-1.632 9.539-7.932 9.539-2.044 0-3.094-.69-4.55-1.553v7.527H0V7.92h4.782v1.738Z"/>
  </g>
</svg>