<?xml version="1.0" encoding="utf-8"?>
<svg xmlns="http://www.w3.org/2000/svg" height="21" width="81">
  <g fill="#196C6E" fill-rule="nonzero" transform="translate(.2 .8)">
    <path d="M78.575 17.202a1.146 1.146 0 0 1 1.2 1.095 1.146 1.146 0 0 1-1.096 1.2A1.146 1.146 0 0 1 77.48 18.4v-.052c0-.625.487-1.13 1.095-1.147m0-.173c-.73 0-1.303.59-1.303 1.303 0 .73.59 1.303 1.303 1.303s1.303-.59 1.303-1.303c.018-.713-.573-1.303-1.303-1.303Zm.191 1.338a.355.355 0 0 0 .278-.348c0-.243-.208-.347-.504-.347h-.382v1.303h.226v-.591h.174l.278.434c.087.14.104.14.226.14h.104v.017l-.4-.608Zm-.226-.018h-.156v-.59h.139c.226 0 .313.086.313.295 0 .208-.07.295-.296.295ZM17.307 3.927h4.831v15.708h-4.831zM48.601 18.071c-1.425 0-2.102-.851-2.102-2.31V5.23h3.857V3.926h-3.84V0h-4.64l-.225 3.927h-2.068V5.23h2.068v10.356c0 2.676 1.529 4.414 4.657 4.414 2.345 0 3.735-.956 4.309-2.242l-.226-.243a2.994 2.994 0 0 1-1.79.556Z"/>
    <path d="M58.714 3.58c-5.16 0-8.427 3.596-8.427 8.288 0 4.657 3.058 8.132 8.323 8.132 5.37 0 8.427-3.597 8.427-8.288-.017-4.657-3.214-8.133-8.323-8.133Zm-.035 15.29c-2.589 0-2.954-2.102-2.954-7.124 0-4.935.348-7.072 2.92-7.072 2.589 0 2.954 2.137 2.954 7.142-.018 4.917-.33 7.055-2.92 7.055ZM73.797 6.638l-.105-2.711h-4.691v15.708h4.848V7.055c.295-.087.59-.14.903-.14.87 0 1.86.348 4.883 1.773l.278-.104V4.17a3.289 3.289 0 0 0-1.911-.608c-1.373.017-2.954.869-4.205 3.076ZM33.31 17.758l.556 1.877h4.136V7.541c0-2.676-2.103-3.979-5.543-3.979-2.311 0-5.161.643-7.107 1.286l-.226 2.745.278.14c3.701-2.485 4.796-3.059 5.943-3.059 1.303 0 1.842.678 1.842 2.103v3.266c-5.474 1.13-8.81 1.964-8.81 5.682 0 2.555 1.703 4.275 4.448 4.275 2.103 0 3.666-.99 4.483-2.242Zm-4.153-2.919c0-2.415.817-3.023 4.049-3.7v6.046a3.09 3.09 0 0 1-2.068.678c-1.373 0-1.98-.782-1.98-3.024Z"/>
    <circle cx="12.337" cy="6.551" r="2.954"/>
    <path d="m9.088 19.652 1.546-3.457L5.178 3.927H0l7.003 15.725z"/>
  </g>
</svg>