<?xml version="1.0" encoding="utf-8"?>
<svg xmlns="http://www.w3.org/2000/svg" height="61" width="300">
  <g fill="none" fill-rule="nonzero">
    <path d="M12.79 39.72h-7V26h7c5.82 0 6.91 4 6.91 6.86 0 2.86-1.09 6.86-6.91 6.86m-.26-19.08H0v39h5.82V45h6.7C22.56 45 26 39.25 26 32.86c0-6.39-3.44-12.22-13.47-12.22M42.62 33a13.44 13.44 0 0 0-7 1.92V20.64L29.8 22.3v37.33h5.82V39.46a11.81 11.81 0 0 1 6-1.51c2.75 0 4.1 1.2 4.1 3.84v17.84h5.82V41.28c0-5-2.34-8.26-8.94-8.26m24.58 22.34c-4.94 0-5.67-3.17-5.67-8.73 0-5.56.73-8.73 5.67-8.73 4.94 0 5.66 3.17 5.66 8.73 0 5.56-.73 8.73-5.66 8.73m0-22.35c-9.25 0-11.54 5.61-11.54 13.62 0 8.01 2.29 13.62 11.54 13.62s11.54-5.61 11.54-13.62c0-8.01-2.29-13.63-11.54-13.63m15.5 13.63c0 8.11 2.81 13.62 12 13.62a18 18 0 0 0 7.17-1.3v-5a17.4 17.4 0 0 1-6.81 1.19c-5 0-6.5-3.43-6.5-8.47 0-5.04 1.46-8.47 6.5-8.47a17.38 17.38 0 0 1 6.81 1.2v-5a18.07 18.07 0 0 0-7.16-1.4c-9.2 0-12 5.51-12 13.62m40.1 7.18a11.79 11.79 0 0 1-6 1.51c-2.76 0-4.11-1.19-4.11-3.85V33l-5.82 1.66V52c0 5 2.34 8.26 8.94 8.26a15 15 0 0 0 8.42-2.7l.94 2.08h3.43V33l-5.82 1.66.02 19.14Zm20.32-9.8c-3.38-.31-4.31-1.09-4.31-2.91 0-2.34 1.92-3.22 5-3.22a21.74 21.74 0 0 1 8 1.45v-5a19.87 19.87 0 0 0-8.06-1.3c-7.64 0-10.55 3.79-10.55 8.26s1.92 6.91 9.77 7.59c3.48.31 4.31 1.3 4.31 3.22 0 2.29-2 3.22-6.18 3.22a22.77 22.77 0 0 1-7.75-1.46v5a24.54 24.54 0 0 0 8.58 1.4c8.32 0 11.07-3.9 11.07-8.37 0-4.84-2-7.17-9.82-7.85" fill="#383E4A"/>
    <path d="m219.31 35.72-.94-2.08h-3.43v26h5.82V39.56a12.71 12.71 0 0 1 6.66-1.56 10.13 10.13 0 0 1 2.86.31v-5a13.45 13.45 0 0 0-11 2.39m-11.54 17.48V33l-5.82 1.66v18.57c0 4.47 2.13 6.76 6.86 6.76.386 0 .77-.033 1.15-.1v-4.73c-1.66 0-2.18-.52-2.18-2m-2.92-23.61a3.6 3.6 0 1 0-3.6-3.6 3.62 3.62 0 0 0 3.6 3.6m52.02-13.88c0-7.44 7.95-12.12 18.71-12.21 9-.08 18.85 4.37 18.86 12.27 0 8.71-10.27 11.1-17.82 11.09-1.73 0-3.3-.13-4-.19a.69.69 0 0 0-.78.68c-1.25 7.72-3.16 12.7-10 20.91a.51.51 0 0 0 .31.75 2.65 2.65 0 0 0 .55-.08c11.62-4.81 13.63-17.74 13.63-17.74 15.14.08 23.07-5.61 23.66-14.84C300.62 6.07 289-.2 275.66 0c-13.34.2-21 6.73-20.94 15.17a12.241 12.241 0 0 0 5.57 10c1.07.68 2 1 2.49.81 1.54-.61-5.92-1.86-5.93-10.3m-18.74 29.01h10.36c0-3.52-.21-6.63-4.71-6.63-4.25 0-5.44 2.74-5.64 6.63M243.75 33c9.11 0 10.56 6 10.56 13.15 0 .88-.05 1.71-.1 2.54h-16.1c.1 3.88 1.5 6.42 6.78 6.42a20.47 20.47 0 0 0 8.23-1.55v5a24 24 0 0 1-9.12 1.61c-8.65 0-11.75-5.18-11.75-13.57s3.07-13.6 11.5-13.6M173.7 20.47h7.22L187.48 51l5.06-30.49h6.14l-7.28 39.12h-7.07l-7-32.24-7 32.24h-7.07L156 20.47h6.14L167.15 51l6.55-30.53Z" fill="#F04A2C"/>
  </g>
</svg>