<?xml version="1.0" encoding="utf-8"?>
<svg xmlns="http://www.w3.org/2000/svg" height="20" width="61">
  <g fill="none" fill-rule="nonzero">
    <path d="M26 10.525c0 2.877-2.25 4.998-5.013 4.998s-5.014-2.12-5.014-4.998c0-2.898 2.251-4.998 5.014-4.998 2.762 0 5.013 2.1 5.013 4.998Zm-2.194 0c0-1.798-1.305-3.028-2.82-3.028-1.513 0-2.818 1.23-2.818 3.028 0 1.78 1.305 3.028 2.819 3.028s2.819-1.25 2.819-3.028Z" fill="#EA4335"/>
    <path d="M36.816 10.525c0 2.877-2.25 4.998-5.013 4.998s-5.014-2.12-5.014-4.998c0-2.895 2.251-4.998 5.014-4.998 2.762 0 5.013 2.1 5.013 4.998Zm-2.195 0c0-1.798-1.304-3.028-2.818-3.028-1.515 0-2.82 1.23-2.82 3.028 0 1.78 1.305 3.028 2.82 3.028 1.514 0 2.818-1.25 2.818-3.028Z" fill="#FBBC05"/>
    <path d="M47.181 5.83v8.972c0 3.69-2.176 5.198-4.75 5.198-2.422 0-3.88-1.62-4.43-2.945l1.911-.795c.34.813 1.174 1.773 2.517 1.773 1.647 0 2.668-1.016 2.668-2.93v-.718h-.077c-.49.606-1.437 1.136-2.632 1.136-2.498 0-4.788-2.177-4.788-4.978 0-2.821 2.29-5.016 4.788-5.016 1.192 0 2.139.53 2.632 1.118h.077V5.83h2.084V5.83Zm-1.929 4.713c0-1.76-1.174-3.046-2.668-3.046-1.514 0-2.782 1.286-2.782 3.046 0 1.742 1.268 3.01 2.782 3.01 1.494 0 2.668-1.268 2.668-3.01Z" fill="#4285F4"/>
    <path d="M50.617.57v14.646h-2.14V.57z" fill="#34A853"/>
    <path d="m58.959 12.17 1.703 1.136c-.55.813-1.874 2.215-4.164 2.215-2.839 0-4.959-2.195-4.959-4.998 0-2.972 2.138-4.998 4.714-4.998 2.593 0 3.862 2.064 4.277 3.18l.227.567-6.68 2.767c.51 1.003 1.306 1.514 2.421 1.514 1.118 0 1.893-.55 2.461-1.383Zm-5.243-1.798 4.466-1.855c-.246-.624-.985-1.059-1.855-1.059-1.115 0-2.668.985-2.611 2.914Z" fill="#EA4335"/>
    <path d="M7.87 9.225v-2.12h7.146c.07.37.106.806.106 1.28 0 1.59-.435 3.557-1.837 4.959-1.363 1.42-3.105 2.177-5.412 2.177C3.596 15.52 0 12.037 0 7.76 0 3.483 3.596 0 7.873 0c2.366 0 4.051.928 5.318 2.138l-1.497 1.497c-.908-.852-2.138-1.515-3.823-1.515-3.123 0-5.566 2.517-5.566 5.64 0 3.123 2.443 5.64 5.566 5.64 2.025 0 3.179-.813 3.918-1.552.6-.6.994-1.456 1.15-2.625l-5.068.002Z" fill="#4285F4"/>
  </g>
</svg>