<?xml version="1.0" encoding="utf-8"?>
<svg xmlns="http://www.w3.org/2000/svg" fill="none" height="53" width="46">
  <path d="M0 0h46v53H0z" fill="#F5F5F5"/>
  <path d="M-747-11584H693V2062H-747z" fill="#fff"/>
  <path d="M-747-10779H693V2054H-747z" fill="#fff"/>
  <path d="M-747-674.875H693v900H-747z" fill="#fff"/>
  <path d="M33.614 2.2 32.364.23h-7.56v17.744l-.026 17.332c.013.129.025.27.025.4 0 4.338-3.53 7.88-7.883 7.88a7.882 7.882 0 0 1-7.883-7.88c0-4.34 3.53-7.881 7.883-7.881a7.87 7.87 0 0 1 2.59.45v-8.653c-.838-.141-1.701-.218-2.59-.218C7.942 19.416.625 26.73.625 35.718S7.942 52.02 16.933 52.02 33.24 44.706 33.24 35.718V15.103c3.259 3.257 7.47 6.438 12.134 7.455v-8.846c-5.062-2.24-10.099-8.859-11.76-11.512Z" fill="#000"/>
</svg>